<?xml version="1.0" encoding="UTF-8"?>
<svg version="1.1" xmlns="http://www.w3.org/2000/svg" width="492" height="507">
<path d="M0 0 C0.64327216 -0.00226556 1.28654433 -0.00453111 1.94930959 -0.00686532 C4.09083843 -0.0131625 6.23230329 -0.01237872 8.37384033 -0.0115509 C9.91513144 -0.01454511 11.4564218 -0.01794824 12.99771118 -0.02172852 C17.17558405 -0.0305471 21.35343643 -0.03290576 25.53131771 -0.0335443 C28.14491678 -0.03425614 30.75851068 -0.03639301 33.37210846 -0.03904152 C42.49996775 -0.04828857 51.62781245 -0.0523773 60.75567627 -0.05158997 C69.24778568 -0.05098967 77.73983146 -0.06153365 86.23192477 -0.07733363 C93.53575397 -0.09043575 100.83956244 -0.09577273 108.14340329 -0.09513456 C112.49982774 -0.09488031 116.85619565 -0.0976907 121.21260834 -0.10831261 C125.31335042 -0.11803839 129.41398244 -0.11804224 133.51472855 -0.11079597 C135.01343828 -0.10975561 136.51215503 -0.11208018 138.01085281 -0.11815643 C147.66739477 -0.15474818 157.34479007 -0.15437566 166.22247314 4.13371277 C166.92114502 4.46371277 167.61981689 4.79371277 168.33966064 5.13371277 C172.48913981 7.20037944 172.48913981 7.20037944 174.34747314 8.13371277 C174.34747314 8.79371277 174.34747314 9.45371277 174.34747314 10.13371277 C174.92626221 10.38894714 175.50505127 10.64418152 176.10137939 10.90715027 C185.03264997 15.78440064 190.54439441 24.97002094 193.45574951 34.38552856 C195.6783533 42.41482379 195.91341603 50.19557943 195.86505127 58.47966003 C195.87048679 60.06652972 195.87761739 61.65339435 195.8862915 63.24024963 C195.90435667 67.50681487 195.89752816 71.77298848 195.88477516 76.0395596 C195.87456121 80.52977029 195.88406375 85.01995017 195.89031982 89.51016235 C195.89757126 97.04579107 195.88807386 104.58126232 195.86895752 112.11686707 C195.84718568 120.79890986 195.8542525 129.48057686 195.87626314 138.16261059 C195.89447942 145.65096463 195.89694541 153.13920628 195.88650846 160.62757534 C195.88030863 165.08517954 195.87934039 169.54260774 195.89265442 174.00020027 C195.90430385 178.19230538 195.89602349 182.38393104 195.87307739 186.57598495 C195.86783874 188.10407024 195.86921977 189.63219667 195.87812805 191.16026497 C195.96506467 207.60261556 191.87462359 221.38014696 180.80450439 233.79386902 C178.85285667 235.58854776 176.89581814 236.45915086 174.34747314 237.13371277 C174.34747314 237.79371277 174.34747314 238.45371277 174.34747314 239.13371277 C172.89501819 239.91556618 171.43503397 240.68343104 169.97247314 241.44621277 C168.75430908 242.09009949 168.75430908 242.09009949 167.51153564 242.74699402 C157.81270431 246.9977164 148.81609906 247.57173499 138.34796143 247.5377655 C136.75020879 247.54347754 135.15246024 247.55044501 133.55471802 247.55856323 C129.24053299 247.5764187 124.9265522 247.57534056 120.6123414 247.56962085 C116.99928876 247.56651763 113.38627471 247.57263407 109.77322757 247.57865959 C101.24341833 247.59267851 92.71370929 247.59116579 84.18389893 247.57975769 C75.40991057 247.56828169 66.63622807 247.58234942 57.86228001 247.60915416 C50.3052437 247.6313693 42.74830299 247.63793541 35.19123638 247.63207775 C30.68832054 247.62872053 26.18560066 247.63104047 21.68271255 247.64832878 C17.445542 247.66388869 13.20882159 247.65974312 8.97166824 247.64102364 C7.42542095 247.63736248 5.87913962 247.64037319 4.33292389 247.65090942 C-11.1201916 247.74809106 -24.47956712 244.20331267 -35.90252686 233.32121277 C-48.00413662 220.36737696 -51.42650285 206.02723322 -51.29949951 188.70597839 C-51.30629594 187.12220258 -51.3152103 185.5384347 -51.3260498 183.9546814 C-51.34860969 179.70036419 -51.34010475 175.44666141 -51.32415438 171.19233513 C-51.31137304 166.71106859 -51.32326908 162.22984985 -51.33108521 157.74858093 C-51.34014652 150.22728667 -51.32828683 142.706239 -51.30438232 135.1849823 C-51.27717779 126.52617518 -51.28599446 117.86795701 -51.31351435 109.20916414 C-51.33630532 101.73517761 -51.33935701 94.26136695 -51.32632101 86.78735685 C-51.31858105 82.34084662 -51.3173326 77.89461194 -51.33400345 73.44812012 C-51.34859555 69.26492467 -51.3381622 65.08247826 -51.30953217 60.89936256 C-51.3029991 59.37695869 -51.30468308 57.85449023 -51.31584549 56.33211327 C-51.41598184 41.27039305 -48.27458231 27.41231911 -37.65252686 16.13371277 C-36.99252686 16.13371277 -36.33252686 16.13371277 -35.65252686 16.13371277 C-35.41405029 15.54590027 -35.17557373 14.95808777 -34.92987061 14.35246277 C-30.65427956 6.92574805 -20.51595919 3.29731989 -12.65252686 1.13371277 C-8.38320197 0.29972201 -4.34714456 0.00635353 0 0 Z M80.34747314 63.13371277 C80.34747314 79.63371277 80.34747314 96.13371277 80.34747314 113.13371277 C83.31747314 113.13371277 86.28747314 113.13371277 89.34747314 113.13371277 C89.34747314 100.26371277 89.34747314 87.39371277 89.34747314 74.13371277 C92.64747314 74.13371277 95.94747314 74.13371277 99.34747314 74.13371277 C99.01747314 110.76371277 98.68747314 147.39371277 98.34747314 185.13371277 C93.89247314 185.62871277 93.89247314 185.62871277 89.34747314 186.13371277 C89.34747314 167.98371277 89.34747314 149.83371277 89.34747314 131.13371277 C86.37747314 131.13371277 83.40747314 131.13371277 80.34747314 131.13371277 C80.34747314 152.25371277 80.34747314 173.37371277 80.34747314 195.13371277 C89.25747314 195.13371277 98.16747314 195.13371277 107.34747314 195.13371277 C107.34747314 155.20371277 107.34747314 115.27371277 107.34747314 74.13371277 C135.34747314 75.13371277 135.34747314 75.13371277 143.34747314 79.13371277 C144.00747314 79.13371277 144.66747314 79.13371277 145.34747314 79.13371277 C145.34747314 79.79371277 145.34747314 80.45371277 145.34747314 81.13371277 C146.68080648 82.80037944 146.68080648 82.80037944 148.34747314 84.13371277 C149.00747314 84.13371277 149.66747314 84.13371277 150.34747314 84.13371277 C150.49055908 84.71765808 150.63364502 85.30160339 150.78106689 85.90324402 C151.28465019 87.88632032 151.84348921 89.85518029 152.40997314 91.82121277 C154.17791611 98.97274144 153.67652161 105.14656739 151.34747314 112.13371277 C151.00611388 113.46501391 150.66821359 114.79729425 150.34747314 116.13371277 C149.68747314 116.13371277 149.02747314 116.13371277 148.34747314 116.13371277 C147.85247314 116.87621277 147.35747314 117.61871277 146.84747314 118.38371277 C141.39787703 124.37826849 134.64008684 125.28719105 126.85748291 125.76164246 C123.02078168 125.93938272 119.1875296 126.05486151 115.34747314 126.13371277 C115.34747314 130.09371277 115.34747314 134.05371277 115.34747314 138.13371277 C130.31754745 138.47566878 144.63682499 138.15417275 157.34747314 129.13371277 C157.34747314 128.47371277 157.34747314 127.81371277 157.34747314 127.13371277 C158.00747314 127.13371277 158.66747314 127.13371277 159.34747314 127.13371277 C167.40496949 117.83361458 170.03874099 109.17475827 169.75762939 96.98918152 C168.71570467 87.19508914 164.78168061 78.65413224 157.34747314 72.13371277 C149.35974913 65.79345683 138.92756131 62.99652287 128.82281494 63.02018738 C127.74207199 63.02026291 126.66132904 63.02033844 125.5478363 63.02041626 C123.81476982 63.02815819 123.81476982 63.02815819 122.04669189 63.03605652 C120.85518021 63.03747147 119.66366852 63.03888641 118.43605042 63.04034424 C114.63566564 63.04593549 110.83534007 63.05848645 107.03497314 63.07121277 C104.45619795 63.0762289 101.87742184 63.08079161 99.29864502 63.08488464 C92.98154664 63.09505056 86.66457607 63.11462787 80.34747314 63.13371277 Z M13.20684814 66.62590027 C12.55506592 67.16102234 11.90328369 67.69614441 11.23175049 68.2474823 C10.52743896 68.82868835 9.82312744 69.40989441 9.09747314 70.00871277 C3.01071735 74.99494625 -3.13956338 79.86395117 -9.39471436 84.63761902 C-13.08875772 87.45891897 -16.74731988 90.32486433 -20.40252686 93.19621277 C-21.01177002 93.67397156 -21.62101318 94.15173035 -22.24871826 94.64396667 C-25.04209372 96.78325865 -25.04209372 96.78325865 -27.65252686 99.13371277 C-27.7388456 100.4763869 -27.75959159 101.82345599 -27.75018311 103.16886902 C-27.74696045 103.97775574 -27.74373779 104.78664246 -27.74041748 105.62004089 C-27.73203857 106.47017761 -27.72365967 107.32031433 -27.71502686 108.19621277 C-27.71051514 109.05021667 -27.70600342 109.90422058 -27.70135498 110.78410339 C-27.68953059 112.9006694 -27.67159454 115.01719962 -27.65252686 117.13371277 C-24.69375889 115.70427996 -22.07735555 114.38792452 -19.65252686 112.13371277 C-18.98992113 109.68586995 -18.89565638 107.6506095 -18.98065186 105.12199402 C-18.87237061 104.46586121 -18.76408936 103.80972839 -18.65252686 103.13371277 C-16.90252686 102.07121277 -16.90252686 102.07121277 -14.65252686 101.13371277 C-13.20758818 100.06681038 -11.79385593 98.95714053 -10.40252686 97.82121277 C-9.53627686 97.11867371 -8.67002686 96.41613464 -7.77752686 95.69230652 C-6.73537048 94.84004041 -5.69375497 93.98711271 -4.65252686 93.13371277 C-2.61227537 91.46155321 -0.57144532 89.7901338 1.47149658 88.1212616 C2.8623917 86.98449075 4.25115528 85.8451056 5.63751221 84.70280457 C6.28945557 84.16953552 6.94139893 83.63626648 7.61309814 83.08683777 C8.24071045 82.5728241 8.86832275 82.05881042 9.51495361 81.52922058 C11.34747314 80.13371277 11.34747314 80.13371277 14.80841064 78.13371277 C17.64693739 76.34569765 17.64693739 76.34569765 17.93341064 73.11808777 C17.82899658 71.51707214 17.82899658 71.51707214 17.72247314 69.88371277 C17.66833252 68.80605652 17.61419189 67.72840027 17.55841064 66.61808777 C17.45399658 65.38832214 17.45399658 65.38832214 17.34747314 64.13371277 C15.59871972 64.13371277 14.51322684 65.54689075 13.20684814 66.62590027 Z M25.34747314 65.13371277 C24.38394797 69.08722481 24.23373172 72.19653915 25.34747314 76.13371277 C28.6648629 80.15891918 33.26409817 82.98132828 37.54376221 85.88761902 C39.9943525 87.58060939 42.29266442 89.4361296 44.59747314 91.32121277 C45.37606689 91.94382996 46.15466064 92.56644714 46.95684814 93.20793152 C48.68240392 94.59796256 50.40022052 95.99761987 52.11309814 97.40324402 C53.46661377 98.50732605 53.46661377 98.50732605 54.84747314 99.63371277 C56.06950439 100.63918152 56.06950439 100.63918152 57.31622314 101.66496277 C59.19981796 103.32902798 59.19981796 103.32902798 61.34747314 103.13371277 C61.34747314 103.79371277 61.34747314 104.45371277 61.34747314 105.13371277 C63.3653865 106.72340524 63.3653865 106.72340524 65.84747314 108.25871277 C66.68278564 108.79754089 67.51809814 109.33636902 68.37872314 109.89152527 C69.02841064 110.30144714 69.67809814 110.71136902 70.34747314 111.13371277 C71.11793061 106.91759831 71.3546844 103.32290983 70.34747314 99.13371277 C66.16693049 94.6286531 61.22279176 91.09215231 55.34747314 89.13371277 C55.34747314 88.47371277 55.34747314 87.81371277 55.34747314 87.13371277 C53.73008159 85.84039416 52.05073426 84.62414742 50.34747314 83.44621277 C45.93001931 80.32834535 41.86046699 77.06681307 37.90606689 73.38371277 C36.42042599 71.92516333 36.42042599 71.92516333 34.34747314 72.13371277 C34.34747314 71.47371277 34.34747314 70.81371277 34.34747314 70.13371277 C32.86110556 68.77311187 32.86110556 68.77311187 30.97247314 67.50871277 C30.34598877 67.06269714 29.71950439 66.61668152 29.07403564 66.15715027 C27.39524671 64.96374307 27.39524671 64.96374307 25.34747314 65.13371277 Z M3.72247314 102.00871277 C2.71958252 102.72800964 1.71669189 103.44730652 0.68341064 104.18840027 C-0.08744873 104.83035339 -0.85830811 105.47230652 -1.65252686 106.13371277 C-1.65252686 106.79371277 -1.65252686 107.45371277 -1.65252686 108.13371277 C-2.24404541 108.4113446 -2.83556396 108.68897644 -3.44500732 108.97502136 C-5.51222825 110.06007229 -7.16541896 111.2059532 -8.97283936 112.67277527 C-9.89310913 113.41479187 -9.89310913 113.41479187 -10.83197021 114.17179871 C-11.47400391 114.69548035 -12.1160376 115.21916199 -12.77752686 115.75871277 C-14.11475666 116.83945404 -15.45199628 117.92018316 -16.78924561 119.00090027 C-17.44328369 119.53167175 -18.09732178 120.06244324 -18.7711792 120.60929871 C-21.36765942 122.71316874 -23.9782937 124.79880991 -26.59002686 126.88371277 C-27.38280029 127.51793152 -28.17557373 128.15215027 -28.99237061 128.80558777 C-29.81414795 129.46300964 -29.81414795 129.46300964 -30.65252686 130.13371277 C-29.94483154 130.69574402 -29.23713623 131.25777527 -28.50799561 131.83683777 C-25.63018811 134.15168155 -22.79511161 136.51082462 -19.96502686 138.88371277 C-15.9992457 142.19162191 -12.02938584 145.49449688 -8.02752686 148.75871277 C-6.83256592 149.73711121 -6.83256592 149.73711121 -5.61346436 150.73527527 C-3.78255407 152.32725422 -3.78255407 152.32725422 -1.65252686 152.13371277 C-1.65252686 152.79371277 -1.65252686 153.45371277 -1.65252686 154.13371277 C0.08605275 155.55539408 1.88971296 156.89820395 3.72247314 158.19621277 C4.72020752 158.90906433 5.71794189 159.62191589 6.74591064 160.35636902 C9.18551166 162.10910136 9.18551166 162.10910136 11.34747314 163.13371277 C11.91422943 159.32734955 12.08672778 155.92489027 11.34747314 152.13371277 C8.79507628 148.82323222 5.73382276 146.5484755 2.34747314 144.13371277 C1.37809814 143.30871277 0.40872314 142.48371277 -0.59002686 141.63371277 C-2.4970596 139.93765554 -2.4970596 139.93765554 -4.65252686 140.13371277 C-4.65252686 139.47371277 -4.65252686 138.81371277 -4.65252686 138.13371277 C-6.66860852 136.32130529 -6.66860852 136.32130529 -9.15252686 134.50871277 C-9.98783936 133.87707214 -10.82315186 133.24543152 -11.68377686 132.59465027 C-12.33346436 132.11254089 -12.98315186 131.63043152 -13.65252686 131.13371277 C-12.29211834 127.90446023 -10.96943103 126.38523601 -8.02752686 124.50871277 C-6.1505701 123.34920325 -6.1505701 123.34920325 -4.65252686 122.13371277 C-4.65252686 121.47371277 -4.65252686 120.81371277 -4.65252686 120.13371277 C-3.99252686 119.94808777 -3.33252686 119.76246277 -2.65252686 119.57121277 C1.66509074 117.50235434 4.87746921 114.39319345 8.34747314 111.13371277 C8.91852783 110.67222839 9.48958252 110.21074402 10.07794189 109.73527527 C11.88359468 107.45737483 11.6464241 105.80678737 11.53497314 102.94621277 C11.50790283 102.04515808 11.48083252 101.14410339 11.45294189 100.21574402 C11.41813721 99.52867371 11.38333252 98.84160339 11.34747314 98.13371277 C8.13167267 98.13371277 6.27712023 100.15378814 3.72247314 102.00871277 Z M31.34747314 98.13371277 C31.34747314 101.76371277 31.34747314 105.39371277 31.34747314 109.13371277 C32.33747314 109.46371277 33.32747314 109.79371277 34.34747314 110.13371277 C34.34747314 110.79371277 34.34747314 111.45371277 34.34747314 112.13371277 C35.991042 113.64145067 35.991042 113.64145067 38.15997314 115.19621277 C42.92764417 118.78331764 47.49988346 122.56731865 52.06231689 126.41105652 C54.13669304 128.33436736 54.13669304 128.33436736 56.34747314 128.13371277 C54.98956941 132.66786259 53.17693655 134.31446602 49.22247314 136.82121277 C47.56681954 137.87886118 45.93241891 138.97278386 44.34747314 140.13371277 C44.34747314 140.79371277 44.34747314 141.45371277 44.34747314 142.13371277 C43.50442627 142.52236511 43.50442627 142.52236511 42.64434814 142.91886902 C38.19678206 145.27123816 34.41100434 148.11965197 31.34747314 152.13371277 C30.60505917 155.92550495 30.78054838 159.32621808 31.34747314 163.13371277 C32.17891846 162.50142761 32.17891846 162.50142761 33.02716064 161.85636902 C34.11384033 161.03459167 34.11384033 161.03459167 35.22247314 160.19621277 C36.30141846 159.37830261 36.30141846 159.37830261 37.40216064 158.54386902 C39.34747314 157.13371277 39.34747314 157.13371277 41.34747314 156.13371277 C41.34747314 155.47371277 41.34747314 154.81371277 41.34747314 154.13371277 C42.02809814 153.90683777 42.70872314 153.67996277 43.40997314 153.44621277 C48.12687221 151.33866212 52.01100061 148.4701853 55.65997314 144.82121277 C58.87368464 141.60750127 62.36153171 138.88702621 65.94512939 136.09855652 C68.23248629 134.22775893 70.29768154 132.25924725 72.34747314 130.13371277 C64.09877662 122.93619946 55.74946442 115.98871656 47.00909424 109.39543152 C45.22289236 108.03911484 43.45012911 106.66654537 41.67950439 105.28996277 C41.0801709 104.82477234 40.4808374 104.35958191 39.86334229 103.8802948 C38.7064342 102.98170367 37.55062947 102.08168977 36.39605713 101.18009949 C34.11815877 99.0555063 34.11815877 99.0555063 31.34747314 98.13371277 Z M66.34747314 145.13371277 C66.34747314 145.79371277 66.34747314 146.45371277 66.34747314 147.13371277 C65.72872314 147.31933777 65.10997314 147.50496277 64.47247314 147.69621277 C61.98633313 149.01780426 61.98633313 149.01780426 61.69122314 152.30949402 C60.35633726 157.36095598 56.73155973 159.69910018 52.72247314 162.75871277 C51.97207764 163.35337341 51.22168213 163.94803406 50.44854736 164.56071472 C48.88008305 165.80338575 47.30658166 167.03972324 45.72833252 168.26994324 C41.93662417 171.23814479 38.20727517 174.28198193 34.47247314 177.32121277 C33.80135498 177.86149109 33.13023682 178.40176941 32.43878174 178.9584198 C31.81310303 179.46357117 31.18742432 179.96872253 30.54278564 180.48918152 C29.99638428 180.92899353 29.44998291 181.36880554 28.88702393 181.82194519 C25.38389417 184.57829483 25.38389417 184.57829483 24.05450439 188.61418152 C24.08930908 189.50750183 24.12411377 190.40082214 24.15997314 191.32121277 C24.18704346 192.22226746 24.21411377 193.12332214 24.24200439 194.05168152 C24.27680908 194.73875183 24.31161377 195.42582214 24.34747314 196.13371277 C24.96235596 195.72379089 25.57723877 195.31386902 26.21075439 194.89152527 C29.58966064 192.6389211 32.96856689 190.38631694 36.34747314 188.13371277 C36.34747314 187.47371277 36.34747314 186.81371277 36.34747314 186.13371277 C36.88372314 185.88621277 37.41997314 185.63871277 37.97247314 185.38371277 C40.92987134 183.8271874 43.64471365 182.09935604 46.34747314 180.13371277 C46.34747314 179.47371277 46.34747314 178.81371277 46.34747314 178.13371277 C47.07450439 177.89007996 47.80153564 177.64644714 48.55059814 177.39543152 C52.68323839 175.53112593 55.44376161 172.56949629 58.69903564 169.46574402 C61.1898373 167.27251601 63.62306185 165.80111275 66.47247314 164.13371277 C68.88498365 162.36566904 70.14878853 161.15251061 70.72979736 158.17326355 C71.12409195 153.13044334 70.80563227 148.16215056 70.34747314 143.13371277 C68.88522298 143.04126274 68.88522298 143.04126274 66.34747314 145.13371277 Z M-27.65252686 149.13371277 C-28.57207787 156.0079507 -28.57207787 156.0079507 -26.16424561 162.20011902 C-22.83742785 165.20223263 -22.83742785 165.20223263 -18.65252686 166.13371277 C-18.65252686 166.79371277 -18.65252686 167.45371277 -18.65252686 168.13371277 C-16.56280416 169.92910833 -14.47410603 171.60432719 -12.27752686 173.25871277 C-11.67424561 173.72664246 -11.07096436 174.19457214 -10.44940186 174.67668152 C-7.39517745 177.26985516 -7.39517745 177.26985516 -3.65252686 178.13371277 C-3.65252686 178.79371277 -3.65252686 179.45371277 -3.65252686 180.13371277 C-1.90902752 181.74443761 -1.90902752 181.74443761 0.34747314 183.38371277 C1.16344971 183.99859558 1.97942627 184.61347839 2.82012939 185.24699402 C3.65415283 185.86961121 4.48817627 186.49222839 5.34747314 187.13371277 C6.10930908 187.72539246 6.87114502 188.31707214 7.65606689 188.92668152 C8.35860596 189.46937683 9.06114502 190.01207214 9.78497314 190.57121277 C10.42305908 191.06492371 11.06114502 191.55863464 11.71856689 192.06730652 C13.30186768 193.31629136 13.30186768 193.31629136 15.34747314 193.13371277 C15.34747314 193.79371277 15.34747314 194.45371277 15.34747314 195.13371277 C16.00747314 195.13371277 16.66747314 195.13371277 17.34747314 195.13371277 C18.22187744 191.2026302 18.42081561 188.03989518 17.34747314 184.13371277 C13.85440283 179.91377662 9.0165966 176.90037847 4.34747314 174.13371277 C3.68747314 174.13371277 3.02747314 174.13371277 2.34747314 174.13371277 C2.34747314 173.47371277 2.34747314 172.81371277 2.34747314 172.13371277 C0.67061083 170.59162834 0.67061083 170.59162834 -1.52752686 169.00871277 C-5.97546826 165.6604209 -10.29126489 162.17969877 -14.58612061 158.63761902 C-16.49608402 156.93756467 -16.49608402 156.93756467 -18.65252686 157.13371277 C-18.65252686 156.47371277 -18.65252686 155.81371277 -18.65252686 155.13371277 C-20.67044021 153.5440203 -20.67044021 153.5440203 -23.15252686 152.00871277 C-23.98783936 151.46988464 -24.82315186 150.93105652 -25.68377686 150.37590027 C-26.33346436 149.96597839 -26.98315186 149.55605652 -27.65252686 149.13371277 Z M115.34747314 189.13371277 C115.34747314 191.11371277 115.34747314 193.09371277 115.34747314 195.13371277 C126.23747314 195.13371277 137.12747314 195.13371277 148.34747314 195.13371277 C148.34747314 193.48371277 148.34747314 191.83371277 148.34747314 190.13371277 C145.37387865 188.64691552 142.68448136 189.02258672 139.37091064 189.03605652 C138.68566315 189.03747147 138.00041565 189.03888641 137.29440308 189.04034424 C135.10371554 189.04594602 132.91312984 189.05849871 130.72247314 189.07121277 C129.23809962 189.07622754 127.75372449 189.08079049 126.26934814 189.08488464 C122.62868999 189.095916 118.9880915 189.11318178 115.34747314 189.13371277 Z " fill="#0A0A0A" transform="translate(170.65252685546875,114.86628723144531)"/>
<path d="M0 0 C17.82 0 35.64 0 54 0 C54 0.33 54 0.66 54 1 C36.51 1 19.02 1 1 1 C1 17.5 1 34 1 51 C3.97 51 6.94 51 10 51 C10 38.13 10 25.26 10 12 C13.3 12 16.6 12 20 12 C20.02311997 26.45532868 20.04091331 40.91065299 20.05181217 55.36599636 C20.05697489 62.07741868 20.06401713 68.78882932 20.07543945 75.50024414 C20.08626565 81.97113736 20.09227626 88.44201842 20.09487724 94.91292 C20.09673198 97.38778945 20.1003535 99.8626582 20.10573006 102.33752251 C20.11293693 105.79070373 20.11399109 109.24383401 20.11352539 112.69702148 C20.11712067 113.73135818 20.12071594 114.76569489 20.12442017 115.83137512 C20.1230455 116.76672089 20.12167084 117.70206665 20.12025452 118.66575623 C20.12117631 119.4833866 20.1220981 120.30101698 20.12304783 121.14342403 C20 123 20 123 19 124 C16.03 124 13.06 124 10 124 C10 105.85 10 87.7 10 69 C7.03 69 4.06 69 1 69 C1 90.12 1 111.24 1 133 C9.91 133 18.82 133 28 133 C28 93.07 28 53.14 28 12 C28.33 12 28.66 12 29 12 C29 52.26 29 92.52 29 134 C19.43 134 9.86 134 0 134 C0 112.22 0 90.44 0 68 C3.63 68 7.26 68 11 68 C11 85.82 11 103.64 11 122 C13.31 122 15.62 122 18 122 C18 86.03 18 50.06 18 13 C15.69 13 13.38 13 11 13 C11 25.87 11 38.74 11 52 C7.37 52 3.74 52 0 52 C0 34.84 0 17.68 0 0 Z " fill="#ADADAD" transform="translate(250,177)"/>
<path d="M0 0 C-2.66659934 5.99984852 -6.85921933 10.08853645 -12 14 C-12.66 14 -13.32 14 -14 14 C-12.5 11 -12.5 11 -11 8 C-10.34 8 -9.68 8 -9 8 C-8.773125 7.4225 -8.54625 6.845 -8.3125 6.25 C-6.47530093 3.10051589 -3.84497849 0 0 0 Z " fill="#7B7B7B" transform="translate(144,123)"/>
<path d="M0 0 C0.66 0.33 1.32 0.66 2 1 C1.01 2.485 1.01 2.485 0 4 C0 4.99 0 5.98 0 7 C-0.33 7.66 -0.66 8.32 -1 9 C-1.66 9 -2.32 9 -3 9 C-3.66 10.65 -4.32 12.3 -5 14 C-5.66 13.67 -6.32 13.34 -7 13 C-5.82713348 4.80743982 -5.82713348 4.80743982 -2.375 1.4375 C-1.59125 0.963125 -0.8075 0.48875 0 0 Z " fill="#666666" transform="translate(157,214)"/>
<path d="M0 0 C1.98 0.99 1.98 0.99 4 2 C3.01 2.495 3.01 2.495 2 3 C2 6.63 2 10.26 2 14 C1.34 13.67 0.68 13.34 0 13 C0 8.71 0 4.42 0 0 Z " fill="#C9C9C9" transform="translate(194,177)"/>
<path d="M0 0 C0.66 0.33 1.32 0.66 2 1 C-2.30769231 6.78461538 -2.30769231 6.78461538 -5.8125 7.875 C-6.8953125 7.936875 -6.8953125 7.936875 -8 8 C-5.33333333 5.33333333 -2.66666667 2.66666667 0 0 Z " fill="#7F7F7F" transform="translate(167,206)"/>
<path d="M0 0 C0.66 0.33 1.32 0.66 2 1 C0.35 2.98 -1.3 4.96 -3 7 C-4.32 6.67 -5.64 6.34 -7 6 C-5.68 5.34 -4.36 4.68 -3 4 C-3 3.34 -3 2.68 -3 2 C-2.01 1.34 -1.02 0.68 0 0 Z " fill="#838383" transform="translate(215,267)"/>
<path d="M0 0 C0.66 0.33 1.32 0.66 2 1 C0.35 2.98 -1.3 4.96 -3 7 C-3.66 6.67 -4.32 6.34 -5 6 C-3.86695008 2.60085025 -2.87481525 1.94745549 0 0 Z " fill="#797979" transform="translate(229,256)"/>
<path d="M0 0 C0.66 0 1.32 0 2 0 C0.70700306 2.88437779 -0.65941363 4.87219421 -3 7 C-3.66 6.67 -4.32 6.34 -5 6 C-3.38405168 3.95880212 -1.7143618 1.95927063 0 0 Z " fill="#575757" transform="translate(142,123)"/>
</svg>
